<svg version="1.1" id="Слой_1" xmlns="http://www.w3.org/2000/svg" xmlns:xlink="http://www.w3.org/1999/xlink" x="0px" y="0px"
	 viewBox="0 0 612 612" style="enable-background:new 0 0 612 612;" xml:space="preserve">
<style type="text/css">
	.st0{fill-rule:evenodd;clip-rule:evenodd;fill:#2C2E31;}
	.st1{fill-rule:evenodd;clip-rule:evenodd;fill:#E2B714;}
</style>
<g>
	<g>
		<path class="st0" d="M395.8,612c-7,0-14.1-0.5-21.1-1.4l-2-0.3l-1.9-0.5c-96.7-26.2-182.9-49.2-263.5-70.2l-1.9-0.5l-1.8-0.7
			C34,510.2-0.8,455.5,2.8,380.2l0.1-3.1l0.8-3c21.3-83.6,45-172.8,72.5-272.8l0.5-1.9l0.8-1.8c21-49.8,58.1-82.2,110.5-96.3l3-0.8
			l3.1-0.2c4.2-0.2,8.3-0.3,12.5-0.3c20.9,0,41.7,3,61.6,8.9c77.1,21.9,156.9,43.3,237.1,63.6l1.8,0.4l1.7,0.7
			c38.5,14.8,66.7,37.1,83.8,66.3c17.1,29.2,22.9,64.6,17.2,105.5l-0.2,1.7l-0.4,1.7C588,330.4,565.1,416.5,541,504.5l-0.2,0.6
			l-0.2,0.6c-19,59.7-61.7,95.9-123.5,104.9l-0.3,0C409.9,611.5,402.9,612,395.8,612z"/>
		<path class="st1" d="M497.9,101.9c-79.8-20.2-159.1-41.4-238.2-63.9c-20.8-6.2-42.2-8.6-63.9-7.4c-42.9,11.5-73.1,37.6-90.4,78.7
			c-24.9,90.6-49.1,181.3-72.4,272.3c-3,62.3,24.3,105.3,81.9,128.6c88,22.9,176,46.4,263.8,70.2c11.2,1.5,22.8,1.5,34,0
			c50.4-7.3,83.4-35.3,98.9-84c23.2-84.8,46-169.9,68.1-255.3C589.4,173.1,562.1,126.7,497.9,101.9z M552.2,235
			c-24.3,90.3-49.1,180.2-74.5,270.2c-27.9,42.3-66.6,56.1-115.9,41.4c-79.3-21.2-158.7-42.5-238.2-63.9
			C78.8,464,58.6,430.3,63,381.7c22.3-85.9,45.1-171.7,68.1-257.4c11.7-32.8,34-54,67-63.9c15.2-0.6,30,0.5,44.6,3.2
			c79.3,21.2,158.8,42.5,238.2,63.9C534.8,143.5,558.6,179.1,552.2,235z"/>
		<g>
			<path class="st1" d="M206.5,111.5c-14.1,6.5-24.4,17.3-30.8,31.9c-5.3,26.5,3.6,46.7,26.5,60.7c39,10.2,62.3-4.2,70.2-43.5
				C267.2,122.6,245,106.2,206.5,111.5z M239.4,171.1c-14.7,12.7-26.8,10.6-36.1-6.4c-1.2-11.1,2.6-19.6,11.7-25.5
				C238.2,138.6,246.2,149.3,239.4,171.1z"/>
			<path class="st1" d="M440.4,173.2c-15.8,6.4-26.8,17.6-32.9,34c-4.9,32.3,8.3,53.4,39.3,62.8c29.3,1.7,48.1-11.2,56.4-39.3
				C503.2,189.2,482.4,170,440.4,173.2z M473.5,228.6c-5.8,10.5-14.7,14.4-26.5,11.7c-10-6.2-13.2-15.2-9.6-26.5
				c3-5.3,6.8-9.6,11.7-12.7C468.2,200.7,476.4,209.8,473.5,228.6z"/>
			<path class="st1" d="M144.8,343.4c-36.6,21.1-42.9,49.1-19.1,84c29.7,21.1,55.5,17.3,77.7-11.7
				C216.7,365.6,197.1,341.5,144.8,343.4z M175.7,405c-23.2,12-34.4,4.7-34-21.2c3-5.3,6.8-9.6,11.7-12.7
				C177.4,371.6,184.8,383,175.7,405z"/>
			<path class="st1" d="M441.5,445.5c-9.1-30.6-30.2-44.3-62.8-40.4c-27.6,11.2-38.5,31.9-32.9,61.7c10,25.9,28.7,37.6,56.4,35
				C430.2,493.3,443.4,474.6,441.5,445.5z M385.2,472.1c-15.9-11.5-16.8-24-2.1-37.2c12.1-2.6,21.7,0.9,28.7,10.6
				C414.2,465.7,405.4,474.6,385.2,472.1z"/>
		</g>
	</g>
</g>
</svg>