<svg version="1.1" id="Слой_1" xmlns="http://www.w3.org/2000/svg" xmlns:xlink="http://www.w3.org/1999/xlink" x="0px" y="0px"
	 viewBox="0 0 612 612" style="enable-background:new 0 0 612 612;" xml:space="preserve">
<style type="text/css">
	.st0{fill-rule:evenodd;clip-rule:evenodd;fill:#E2B714;}
	.st1{fill-rule:evenodd;clip-rule:evenodd;fill:#2C2E31;}
	.st2{fill-rule:evenodd;clip-rule:evenodd;fill:#323437;}
</style>
<g>
	<circle class="st0" cx="306" cy="306" r="306"/>
	<circle class="st1" cx="306" cy="306" r="292.4"/>
	<circle class="st2" cx="306" cy="306" r="272.4"/>
</g>
<path class="st1" d="M470.7,259.3l-1.1-0.4l-1.1-0.3c-25.4-6.4-50.9-13.2-76.3-20.1c0.3-3,0.2-6.4-0.6-10.3l-0.7-3.1l-1.6-2.7
	c-19.7-34-39.3-68-59-102l-0.5-0.9l-0.6-0.8c-4.7-6.5-10.4-12.2-17-17l-1.1-0.7c-26.8-16.9-55.6-17.8-83.3-2.6l-0.3,0.2
	c-35.8,20.4-71.9,41.3-107.3,62.1l-1.4,0.8l-1.3,1.1c-31.1,26.1-38.4,60.8-20.6,97.5l65.3,112.7c16,20.1,36.7,30.4,60.5,30.4
	c1,0,2,0,3.1-0.1c-0.1,0.4-0.2,0.8-0.3,1.3l-0.5,2l-0.1,2c-0.9,18.8,3,35.2,11.7,48.8c8.7,13.6,21.9,24.1,39.3,31.2l1.2,0.5l1.3,0.3
	c41.1,10.7,82.8,21.8,123.8,32.9l1.4,0.4l1.4,0.2c3.5,0.4,7,0.7,10.5,0.7s7-0.2,10.5-0.7h0.3c31.4-4.5,53.1-22.9,62.7-53.3l0.1-0.4
	l0.1-0.4c10.9-39.9,21.7-80.3,32.1-120.2l0.3-1.1l0.2-1.1C527.6,305.1,509.5,274.2,470.7,259.3z"/>
<g>
	<g>
		<path class="st0" d="M463.5,278c-37.5-9.5-74.8-19.5-112-30c-9.8-2.9-19.8-4.1-30-3.5c-20.2,5.4-34.4,17.7-42.5,37
			c-11.7,42.6-23.1,85.2-34,128c-1.4,29.3,11.4,49.5,38.5,60.5c41.4,10.8,82.7,21.8,124,33c5.3,0.7,10.7,0.7,16,0
			c23.7-3.4,39.2-16.6,46.5-39.5c10.9-39.9,21.6-79.9,32-120C506.5,311.4,493.7,289.6,463.5,278z M489,340.5
			c-11.4,42.4-23.1,84.7-35,127c-13.1,19.9-31.3,26.4-54.5,19.5c-37.3-10-74.6-20-112-30c-21.1-8.8-30.6-24.6-28.5-47.5
			c10.5-40.4,21.2-80.7,32-121c5.5-15.4,16-25.4,31.5-30c7.1-0.3,14.1,0.2,21,1.5c37.3,10,74.7,20,112,30
			C480.8,297.5,492,314.3,489,340.5z"/>
		<g>
			<path class="st0" d="M326.5,282.5c-6.6,3.1-11.5,8.1-14.5,15c-2.5,12.5,1.7,22,12.5,28.5c18.3,4.8,29.3-2,33-20.5
				C355,287.7,344.6,280,326.5,282.5z M342,310.5c-6.9,6-12.6,5-17-3c-0.6-5.2,1.2-9.2,5.5-12C341.4,295.2,345.2,300.2,342,310.5z"
				/>
			<path class="st0" d="M436.5,311.5c-7.4,3-12.6,8.3-15.5,16c-2.3,15.2,3.9,25.1,18.5,29.5c13.8,0.8,22.6-5.3,26.5-18.5
				C466,319,456.2,310,436.5,311.5z M452,337.5c-2.7,4.9-6.9,6.8-12.5,5.5c-4.7-2.9-6.2-7.1-4.5-12.5c1.4-2.5,3.2-4.5,5.5-6
				C449.5,324.4,453.4,328.7,452,337.5z"/>
			<path class="st0" d="M297.5,391.5c-17.2,9.9-20.2,23.1-9,39.5c14,9.9,26.1,8.1,36.5-5.5C331.3,401.9,322.1,390.6,297.5,391.5z
				 M312,420.5c-10.9,5.6-16.2,2.2-16-10c1.4-2.5,3.2-4.5,5.5-6C312.8,404.8,316.3,410.1,312,420.5z"/>
			<path class="st0" d="M437,439.5c-4.3-14.4-14.2-20.8-29.5-19c-13,5.3-18.1,15-15.5,29c4.7,12.2,13.5,17.7,26.5,16.5
				C431.7,462,437.9,453.2,437,439.5z M410.5,452c-7.5-5.4-7.9-11.3-1-17.5c5.7-1.2,10.2,0.4,13.5,5C424.1,449,420,453.2,410.5,452z
				"/>
		</g>
	</g>
	<g>
		<g>
			<path class="st0" d="M288,160.5c-5.8-11.7-15.3-16.7-28.5-15c-12.6,5.1-17.8,14.4-15.5,28c4.4,13.3,13.6,19.1,27.5,17.5
				C285.6,185.4,291.1,175.2,288,160.5z M275,171.5c-3.4,6-8.2,7.5-14.5,4.5c-5.9-7-4.9-12.8,3-17.5
				C272.4,158.4,276.3,162.7,275,171.5z"/>
			<path class="st0" d="M239.5,222.5c-6.1,2.3-11,6.3-14.5,12c-5.6,15.8-0.8,27,14.5,33.5c14.8,1.8,24.3-4.3,28.5-18.5
				C268.2,230.5,258.7,221.5,239.5,222.5z M251.5,253c-11.1,3.9-15.9,0-14.5-11.5c1-2.2,2.5-3.9,4.5-5
				C254.1,236.3,257.5,241.8,251.5,253z"/>
			<path class="st0" d="M219.5,299.5c-3.4,1.5-6.7,3.4-10,5.5c-10.9,12.3-10.6,24.3,1,36c12.6,7.2,23.8,5.4,33.5-5.5
				C252,312.7,243.8,300.7,219.5,299.5z M233.5,326c-2.9,5.1-7.2,6.8-13,5c-6.9-6.3-6.5-12.1,1-17.5
				C230.9,312.8,234.9,316.9,233.5,326z"/>
		</g>
		<path class="st0" d="M178,360.5c15.1,19,34.6,26.2,58.5,21.5c2.4-0.7,4.6-1.9,6.5-3.5c2.4-4.7,1.3-8.2-3.5-10.5
			c-19.6,5.7-36.1,0.8-49.5-14.5c-20.9-35.5-41.6-71.2-62-107c-11.4-21.4-8.2-40.2,9.5-56.5c36-21,72-42,108-63
			c21.1-10,39.6-6.5,55.5,10.5c19.7,34,39.3,68,59,102c1.3,1.5,3,2.1,5,2c5.9-0.2,8.3-3.2,7-9c-19.7-34-39.3-68-59-102
			c-3.5-4.8-7.7-9-12.5-12.5c-20.6-13-41.6-13.7-63-2c-35.9,20.4-71.5,41.1-107,62c-24.2,20.3-29.4,44.8-15.5,73.5"/>
	</g>
</g>
</svg>