<?xml version="1.0" encoding="utf-8" ?>
<svg xmlns="http://www.w3.org/2000/svg" xmlns:xlink="http://www.w3.org/1999/xlink" width="330" height="250">
	<path fill="#0073BF" d="M306.676 147.623C306.714 147.616 306.751 147.608 306.79 147.602C306.853 147.594 306.917 147.59 306.98 147.583C307.033 147.577 307.085 147.568 307.138 147.564C308.245 147.469 325.83 152.822 326.699 153.543C325.771 154.422 322.398 154.621 321.054 154.851C318.762 155.979 307.346 157.704 304.322 158.203C304.384 158.12 304.446 158.038 304.504 157.953C305.257 156.848 306.912 148.822 306.676 147.623Z"/>
	<path fill="#0073BF" d="M70.7696 83.0592C72.4231 82.8976 74.2212 82.7156 75.7153 83.5951C77.8128 84.83 79.0208 88.0792 79.74 90.3021C81.7423 96.4903 82.7119 103.187 83.6989 109.598C85.3847 120.548 86.6961 131.554 88.2558 142.523C89.2181 149.29 90.0467 156.014 91.8027 162.633C93.7489 158.341 94.7383 152.77 98.9615 150.077C105.813 149.447 114.21 149.946 121.244 149.947L165.427 149.947L300.655 149.972C300.755 150.218 300.829 150.478 300.829 150.746C300.827 151.947 300.311 154.835 299.471 155.693C290.767 155.772 282.042 155.6 273.335 155.599L205.875 155.602L135.574 155.604L113.852 155.611C109.652 155.613 105.346 155.836 101.166 155.441C99.9503 158.334 99.0098 161.488 97.513 164.242C96.0785 166.88 94.6312 167.864 91.8492 168.681C91.2372 168.496 90.6154 168.307 90.0287 168.052C87.6974 167.036 86.6661 165.065 85.8677 162.79C83.9705 157.383 83.5008 151.195 82.6909 145.536Q80.8723 132.875 79.2164 120.192C77.7892 109.57 76.6112 98.3063 72.6192 88.2976C67.3235 98.2003 64.0246 117.7 61.6885 129.214C60.4288 135.422 59.0535 147.715 55.1209 152.539C52.1678 156.162 47.0877 155.52 42.9492 155.908C42.964 154.533 42.7718 152.652 43.2222 151.354C44.0154 149.07 47.7488 150.222 49.6924 149.201C51.0443 148.49 51.6217 146.975 52.0687 145.6C53.6291 140.796 54.3196 135.526 55.303 130.561C57.7294 118.311 59.8725 105.445 63.8734 93.601C65.1576 89.7997 66.9566 84.9468 70.7696 83.0592Z"/>
</svg>
